<svg xmlns="http://www.w3.org/2000/svg" viewBox="0 0 672.51 180.11"><defs><style>.cls-1{fill:#7e5094;}.cls-2{fill:#cc6967;}.cls-3{fill:#a9c24c;}</style></defs><title>zupy-color</title><g id="Camada_2" data-name="Camada 2"><g id="Camada_1-2" data-name="Camada 1"><path class="cls-1" d="M0,5.32A5.11,5.11,0,0,1,1.52,1.45,5.81,5.81,0,0,1,5.7,0H146.52a6.05,6.05,0,0,1,3.94,1.33,4.86,4.86,0,0,1,1.64,4v24.5q0,1-.06,1.82a6.82,6.82,0,0,1-.67,2.18L63.56,138.51h83.32a5.81,5.81,0,0,1,3.88,1.33,5.11,5.11,0,0,1,1.58,4.12v30.2a6.44,6.44,0,0,1-1.52,4,4.77,4.77,0,0,1-3.94,1.94H6.06A5.63,5.63,0,0,1,2,178.54a5.79,5.79,0,0,1-1.64-4.37v-26.1a5.39,5.39,0,0,1,.85-3.16L88.78,41.6H5.7a6,6,0,0,1-4.19-1.39Q0,38.82,0,35.68Z"/><path class="cls-1" d="M368.74,5.58a5.92,5.92,0,0,1,1.34-4.06,5.05,5.05,0,0,1,4-1.52h77.5a52.8,52.8,0,0,1,15.77,2.3,53.76,53.76,0,0,1,13.58,6.37,55.39,55.39,0,0,1,11.16,9.7,62.46,62.46,0,0,1,8.43,12.19,61.67,61.67,0,0,1,5.28,13.77,59.71,59.71,0,0,1-2.12,36,58.65,58.65,0,0,1-11.22,18.56A57.13,57.13,0,0,1,475,112a51.38,51.38,0,0,1-22.56,5.16H415.68V174.9q0,5.22-5.58,5.22h-36a5.68,5.68,0,0,1-3.88-1.27,5,5,0,0,1-1.46-3.94ZM460.07,58.7a21.89,21.89,0,0,0-1.27-7.28,20.22,20.22,0,0,0-3.7-6.49,19.68,19.68,0,0,0-5.88-4.67,16.53,16.53,0,0,0-7.82-1.82H415.68V79h25.71a17.38,17.38,0,0,0,7.88-1.76,18.33,18.33,0,0,0,5.88-4.55,20,20,0,0,0,3.64-6.43A22.58,22.58,0,0,0,460.07,58.7Z"/><path class="cls-1" d="M590.09,66.47,619.38,3.76a16.17,16.17,0,0,1,1.21-2.12,3.66,3.66,0,0,1,1-1,2.45,2.45,0,0,1,1-.36,6.1,6.1,0,0,0,1.27-.3h46.7A1.89,1.89,0,0,1,672,.55a1.74,1.74,0,0,1,.55,1.27,4.68,4.68,0,0,1-1.7,3L613.32,106.61v67.8q0,5.7-5.56,5.7H571.46a4.72,4.72,0,0,1-3.75-1.52,6.13,6.13,0,0,1-1.33-4.18v-68L509,4.85a4.45,4.45,0,0,1-1.58-3,1.85,1.85,0,0,1,.49-1.27A1.69,1.69,0,0,1,509.25,0h46.7a9,9,0,0,0,1.33.3,2.43,2.43,0,0,1,1,.36,3.68,3.68,0,0,1,1,1q.48.67,1.34,2.12Z"/><path class="cls-2" d="M226.34,91.17c0,6.76.94,17,2.81,21.75a32.51,32.51,0,0,0,7.41,11.52,28,28,0,0,0,10.71,6.51A39.48,39.48,0,0,0,260,133a35.12,35.12,0,0,0,13-2.4,30.12,30.12,0,0,0,10.71-7.13,34,34,0,0,0,7.28-11.72c1.79-4.66,2.68-14.55,2.68-20.58V90.12a5.92,5.92,0,0,1,1.71-4.25,6.07,6.07,0,0,1,4.59-1.78h40a6.53,6.53,0,0,1,4.93,1.85,5.88,5.88,0,0,1,1.78,4.18v.27c0,16-2.35,33.95-7.05,44.82s-11,19.61-19,26.23A72.63,72.63,0,0,1,293,175.68,123.7,123.7,0,0,1,260,180a120.88,120.88,0,0,1-33-4.45A73.09,73.09,0,0,1,199.35,161q-11.92-10.07-19-26.3c-4.7-10.82-7.05-28.63-7.05-44.34v-.27a6.28,6.28,0,0,1,1.57-4.18,4.91,4.91,0,0,1,3.89-1.85h41a7.21,7.21,0,0,1,4.3,1.71,5.22,5.22,0,0,1,2.26,4.32Z"/><rect class="cls-3" x="270.77" y="29.89" width="43.88" height="32.7" rx="4.73" ry="4.73"/><rect class="cls-3" x="204.14" y="29.89" width="43.88" height="32.7" rx="4.73" ry="4.73"/></g></g></svg>