<?xml version="1.0" encoding="UTF-8"?>
<svg viewBox="0 0 512 512" xmlns="http://www.w3.org/2000/svg">
  <defs>
    <style>.cls-1{fill:#cc6967;}.cls-2{fill:#a9c24c;}</style>
  </defs>
  <g transform="matrix(1.5417819,0,0,1.5417819,6.0001319,39.431865)">
    <path
       class="cls-1"
       d="m 99.22,114.68 c 0,12.66 1.75,31.9 5.26,40.7 3.51,8.8 8.14,16 13.87,21.56 a 52.45,52.45 0 0 0 20,12.19 73.89,73.89 0 0 0 23.82,3.87 65.73,65.73 0 0 0 24.28,-4.49 56.37,56.37 0 0 0 20,-13.34 63.64,63.64 0 0 0 13.62,-21.94 c 3.34,-8.73 5,-27.23 5,-38.53 v -2 a 11.07,11.07 0 0 1 3.21,-8 11.36,11.36 0 0 1 8.59,-3.34 h 74.87 q 5.9,0 9.23,3.46 a 11,11 0 0 1 3.33,7.82 v 0.5 c 0,29.91 -4.4,63.54 -13.2,83.88 -8.8,20.34 -20.64,36.71 -35.51,49.1 A 135.93,135.93 0 0 1 224,272.85 231.51,231.51 0 0 1 162.34,280.93 226.23,226.23 0 0 1 100.55,272.6 136.8,136.8 0 0 1 48.76,245.42 Q 26.41,226.57 13.2,196.19 C 4.4,175.93 0,142.6 0,113.2 v -0.5 a 11.75,11.75 0 0 1 2.94,-7.82 9.18,9.18 0 0 1 7.29,-3.46 h 76.72 q 3.83,0 8.05,3.21 a 9.78,9.78 0 0 1 4.22,8.08 z" />
    <rect
       class="cls-2"
       x="182.39999"
       width="82.129997"
       height="61.200001"
       rx="8.8599997"
       ry="8.8599997"
       y="0" />
    <rect
       class="cls-2"
       x="57.68"
       width="82.129997"
       height="61.200001"
       rx="8.8599997"
       ry="8.8599997"
       y="0" />
  </g>
</svg>